<svg width="18" height="18" viewBox="0 0 18 18" fill="none" xmlns="http://www.w3.org/2000/svg">
<g clip-path="url(#clip0_4774_5889)">
<path fill-rule="evenodd" clip-rule="evenodd" d="M0.691011 -3.79246C-0.0305085 -3.34512 0.000330226 -3.90453 0.000330226 8.71625C0.000330226 21.5127 -0.0402288 20.8581 0.777646 21.2463C1.12827 21.4126 2.12889 21.4355 9.05395 21.4355C15.808 21.4355 16.9807 21.41 17.278 21.2563C18.0488 20.8577 17.9993 21.7167 17.9993 8.71625C17.9993 -4.28419 18.0488 -3.42516 17.278 -3.82377C16.9805 -3.9776 15.8036 -4.00256 8.97583 -3.9998C1.69776 -3.99693 0.992194 -3.97928 0.691011 -3.79246ZM11.5976 1.0038C11.4095 1.03188 10.941 1.28038 10.5564 1.55577C10.1718 1.83127 9.63207 2.19161 9.35693 2.3566C9.08166 2.52159 8.72528 2.87989 8.56485 3.153C8.27999 3.63741 8.25371 3.65133 7.46643 3.73328C4.32069 4.06099 3.00016 4.85558 3.00016 6.42065C3.00016 7.37592 3.02968 7.39728 3.82344 7.0163C4.99025 6.4563 6.33394 6.19279 8.39986 6.11887C10.9857 6.02636 12.7651 6.3297 14.7738 7.20529C15.1758 7.38048 15.2443 6.19147 14.8739 5.46551C14.4059 4.54816 13.2694 4.07815 10.7397 3.75608L9.5398 3.60333L10.1398 3.22823C11.3192 2.49076 11.6468 2.23073 11.8811 1.84639C12.1146 1.46349 12.2065 0.899282 12.0297 0.93468C11.9801 0.94452 11.7857 0.975598 11.5976 1.0038ZM6.91158 6.44429C5.8632 6.58985 4.77978 6.86859 4.05658 7.17865L3.49322 7.42032L3.55717 8.87824C3.69385 11.988 4.07698 12.6337 6.96654 14.6248C7.59711 15.0595 8.31599 15.6395 8.56389 15.914L9.01483 16.4131L9.51724 15.8839C9.7937 15.5928 10.5921 14.9683 11.2917 14.496C12.7224 13.53 13.7012 12.569 14.0443 11.7932C14.3404 11.124 14.5141 9.91426 14.5171 8.50194L14.5195 7.3878L13.9496 7.14182C12.4787 6.50693 8.96671 6.15883 6.91158 6.44429ZM12.9568 9.51816C12.6867 10.3618 11.8536 11.8391 11.294 12.4666C10.8344 12.9821 10.8032 13.0436 11.1112 12.8271C12.0724 12.1515 12.8451 10.9278 13.0698 9.72539C13.205 9.00123 13.1529 8.90572 12.9568 9.51816Z" fill="#F79520"/>
</g>
<defs>
<clipPath id="clip0_4774_5889">
<rect width="18" height="18" fill="white"/>
</clipPath>
</defs>
</svg>
