<svg width="18" height="18" viewBox="0 0 18 18" fill="none" xmlns="http://www.w3.org/2000/svg">
<path fill-rule="evenodd" clip-rule="evenodd" d="M8.62833 3.08205C8.6042 3.14698 7.77715 5.43797 6.79039 8.17314C4.98365 13.1814 4.49347 14.4774 4.24431 14.9044C4.05635 15.2266 3.7487 15.4812 3.45133 15.5607C3.21862 15.623 3.2002 15.6415 3.2002 15.8139V16H4.83904H6.47788V15.8087C6.47788 15.6195 6.47461 15.6171 6.16989 15.579C5.83094 15.5366 5.53097 15.3661 5.41631 15.1507C5.27684 14.8887 5.36895 14.3966 5.80466 13.0755L6.2194 11.8182H8.37702H10.5346L10.7999 12.5387C11.4503 14.3054 11.5909 14.8806 11.4566 15.2257C11.3833 15.4142 11.1537 15.5212 10.7021 15.5772C10.3785 15.6173 10.3772 15.6182 10.3772 15.8087V16H12.4681H14.5591V15.8129C14.5591 15.6355 14.5443 15.622 14.2738 15.5527C13.8709 15.4494 13.668 15.2529 13.4239 14.7293C13.2637 14.3858 9.02092 3.11392 9.02092 3.03192C9.02092 3.02265 8.94242 3.00361 8.84652 2.98954C8.70801 2.96919 8.66314 2.98824 8.62833 3.08205ZM7.47232 8.32917C6.97807 9.73524 6.56209 10.9175 6.54796 10.9564C6.52778 11.012 6.92048 11.027 8.39324 11.027C9.42226 11.027 10.2643 11.0079 10.2646 10.9846C10.2653 10.9068 8.42799 5.77331 8.39929 5.77297C8.38375 5.7728 7.96663 6.9231 7.47232 8.32917Z" fill="white"/>
</svg>
