<svg width="18" height="18" viewBox="0 0 18 18" fill="none" xmlns="http://www.w3.org/2000/svg">
<path d="M1.51641 5.50371V5.17214V4.84058H1.87166H2.22691V5.17214V5.50371H1.87166H1.51641Z" fill="white"/>
<path d="M2.32164 5.50371V5.17214V4.84058H2.67689H3.03214V5.17214V5.50371H2.67689H2.32164Z" fill="white"/>
<path d="M3.12688 5.50371V5.17214V4.84058H3.45844H3.79001V5.17214V5.50371H3.45844H3.12688Z" fill="white"/>
<path d="M3.93211 5.50371V5.17214V4.84058H4.26367H4.59524V5.17214V5.50371H4.26367H3.93211Z" fill="white"/>
<path d="M4.73734 5.50371V5.17214V4.84058H5.06891H5.40047V5.17214V5.50371H5.06891H4.73734Z" fill="white"/>
<path d="M5.49521 5.50371V5.17214V4.84058H5.85046H6.20571V5.17214V5.50371H5.85046H5.49521Z" fill="white"/>
<path d="M6.30044 5.50371V5.17214V4.84058H6.65569H7.01094V5.17214V5.50371H6.65569H6.30044Z" fill="white"/>
<path d="M12.5528 5.50371V5.17214V4.84058H12.8844H13.216V5.17214V5.50371H12.8844H12.5528Z" fill="white"/>
<path d="M13.3581 5.50371V5.17214V4.84058H13.6896H14.0212V5.17214V5.50371H13.6896H13.3581Z" fill="white"/>
<path d="M14.1633 5.50371V5.17214V4.84058H14.4949H14.8264V5.17214V5.50371H14.4949H14.1633Z" fill="white"/>
<path d="M14.9212 5.50371V5.17214V4.84058H15.2764H15.6317V5.17214V5.50371H15.2764H14.9212Z" fill="white"/>
<path d="M0.758545 6.30894V5.97737V5.64581H1.09011H1.42168V5.97737V6.30894H1.09011H0.758545Z" fill="white"/>
<path d="M1.51641 6.30894V5.97737V5.64581H1.87166H2.22691V5.97737V6.30894H1.87166H1.51641Z" fill="white"/>
<path d="M2.32164 6.30894V5.97737V5.64581H2.67689H3.03214V5.97737V6.30894H2.67689H2.32164Z" fill="white"/>
<path d="M3.12688 6.30894V5.97737V5.64581H3.45844H3.79001V5.97737V6.30894H3.45844H3.12688Z" fill="white"/>
<path d="M3.93211 6.30894V5.97737V5.64581H4.26367H4.59524V5.97737V6.30894H4.26367H3.93211Z" fill="white"/>
<path d="M4.73734 6.30894V5.97737V5.64581H5.06891H5.40047V5.97737V6.30894H5.06891H4.73734Z" fill="white"/>
<path d="M5.49521 6.30894V5.97737V5.64581H5.85046H6.20571V5.97737V6.30894H5.85046H5.49521Z" fill="white"/>
<path d="M6.30044 6.30894V5.97737V5.64581H6.65569H7.01094V5.97737V6.30894H6.65569H6.30044Z" fill="white"/>
<path d="M7.10567 6.31311V5.97946V5.64581H7.4631H7.82048L7.80651 5.96553L7.79249 6.28526L7.44908 6.29918L7.10567 6.31311Z" fill="white"/>
<path d="M10.9424 6.30894V5.97737V5.64581H11.2976H11.6529V5.97737V6.30894H11.2976H10.9424Z" fill="white"/>
<path d="M11.7476 6.30894V5.97737V5.64581H12.1028H12.4581V5.97737V6.30894H12.1028H11.7476Z" fill="white"/>
<path d="M12.5528 6.30894V5.97737V5.64581H12.8844H13.216V5.97737V6.30894H12.8844H12.5528Z" fill="white"/>
<path d="M13.3581 6.30894V5.97737V5.64581H13.6896H14.0212V5.97737V6.30894H13.6896H13.3581Z" fill="white"/>
<path d="M14.1633 6.30894V5.97737V5.64581H14.4949H14.8264V5.97737V6.30894H14.4949H14.1633Z" fill="white"/>
<path d="M14.9212 6.30894V5.97737V5.64581H15.2764H15.6317V5.97737V6.30894H15.2764H14.9212Z" fill="white"/>
<path d="M15.7264 6.30894V5.97737V5.64581H16.0816H16.4369V5.97737V6.30894H16.0816H15.7264Z" fill="white"/>
<path d="M16.5316 6.30894V5.97737V5.64581H16.8632H17.1948V5.97737V6.30894H16.8632H16.5316Z" fill="white"/>
<path d="M0.758545 7.11417V6.75892V6.40367H1.09011H1.42168V6.75892V7.11417H1.09011H0.758545Z" fill="white"/>
<path d="M1.51641 6.79052C1.51641 6.61247 1.53147 6.45175 1.54995 6.43333C1.56837 6.4149 1.72288 6.406 1.89335 6.41357L2.20323 6.42736L2.21715 6.77077L2.23108 7.11417H1.87374H1.51641V6.79052Z" fill="white"/>
<path d="M6.30044 6.79052C6.30044 6.61247 6.3155 6.45175 6.33397 6.43333C6.3524 6.4149 6.50691 6.406 6.67738 6.41357L6.98726 6.42736L7.00118 6.77077L7.01511 7.11417H6.65777H6.30044V6.79052Z" fill="white"/>
<path d="M7.10567 6.79255C7.10567 6.61341 7.12073 6.45175 7.13921 6.43333C7.15763 6.4149 7.31214 6.406 7.48261 6.41357L7.79249 6.42736V6.75892V7.09049L7.44908 7.10442L7.10567 7.11834V6.79255Z" fill="white"/>
<path d="M7.9109 7.11417V6.75892V6.40367H8.24247H8.57404V6.75892V7.11417H8.24247H7.9109Z" fill="white"/>
<path d="M10.9424 6.79052C10.9424 6.61247 10.9574 6.45175 10.9759 6.43333C10.9943 6.4149 11.1488 6.406 11.3193 6.41357L11.6292 6.42736L11.6431 6.77077L11.657 7.11417H11.2997H10.9424V6.79052Z" fill="white"/>
<path d="M11.7476 6.79052C11.7476 6.61247 11.7627 6.45175 11.7811 6.43333C11.7996 6.4149 11.9541 6.406 12.1245 6.41357L12.4344 6.42736L12.4483 6.77077L12.4623 7.11417H12.1049H11.7476V6.79052Z" fill="white"/>
<path d="M15.7264 6.79052C15.7264 6.61247 15.7415 6.45175 15.7599 6.43333C15.7784 6.4149 15.9329 6.406 16.1033 6.41357L16.4132 6.42736L16.4271 6.77077L16.4411 7.11417H16.0837H15.7264V6.79052Z" fill="white"/>
<path d="M16.5316 7.11417V6.75892V6.40367H16.8632H17.1948V6.75892V7.11417H16.8632H16.5316Z" fill="white"/>
<path d="M10.1845 7.11417V6.78261V6.45104H10.5161H10.8476V6.78261V7.11417H10.5161H10.1845Z" fill="white"/>
<path d="M0.758545 7.91941V7.56416V7.20891H1.09011H1.42168V7.56416V7.91941H1.09011H0.758545Z" fill="white"/>
<path d="M1.51641 7.59575C1.51641 7.4177 1.53062 7.25784 1.548 7.2405C1.56534 7.22312 1.7252 7.20891 1.90325 7.20891H2.22691V7.56416V7.91941H1.87166H1.51641V7.59575Z" fill="white"/>
<path d="M7.10567 7.92357V7.56416V7.20474L7.44908 7.21866L7.79249 7.23259V7.56416V7.89572L7.44908 7.90965L7.10567 7.92357Z" fill="white"/>
<path d="M7.9109 7.91941V7.56416V7.20891H8.24247H8.57404V7.56416V7.91941H8.24247H7.9109Z" fill="white"/>
<path d="M10.1464 7.61683C10.1385 7.46345 10.1432 7.3089 10.1568 7.27342C10.1744 7.22743 10.2772 7.20891 10.5146 7.20891H10.8476V7.56624V7.92357L10.5042 7.90965L10.1608 7.89572L10.1464 7.61683Z" fill="white"/>
<path d="M10.9424 7.91941V7.56416V7.20891H11.2976H11.6529V7.56416V7.91941H11.2976H10.9424Z" fill="white"/>
<path d="M0.758545 8.72464V8.36939V8.01414H1.09011H1.42168V8.36939V8.72464H1.09011H0.758545Z" fill="white"/>
<path d="M1.54009 8.70096L1.52617 8.35755L1.51224 8.01414H1.86958H2.22691V8.37147V8.72881L1.8835 8.71488L1.54009 8.70096Z" fill="white"/>
<path d="M7.10567 8.72881V8.36939V8.00997L7.44908 8.0239L7.79249 8.03782V8.36939V8.70096L7.44908 8.71488L7.10567 8.72881Z" fill="white"/>
<path d="M7.9109 8.72464V8.36939V8.01414H8.24247H8.57404V8.36939V8.72464H8.24247H7.9109Z" fill="white"/>
<path d="M10.1464 8.42206C10.1385 8.26869 10.1432 8.11413 10.1568 8.07865C10.1744 8.03266 10.2772 8.01414 10.5146 8.01414H10.8476V8.37147V8.72881L10.5042 8.71488L10.1608 8.70096L10.1464 8.42206Z" fill="white"/>
<path d="M10.9661 8.70096L10.9521 8.35755L10.9382 8.01414H11.2955H11.6529V8.37147V8.72881L11.3095 8.71488L10.9661 8.70096Z" fill="white"/>
<path d="M14.1633 8.72464V8.36939V8.01414H14.4949H14.8264V8.36939V8.72464H14.4949H14.1633Z" fill="white"/>
<path d="M14.9448 8.70096L14.9309 8.35755L14.917 8.01414H15.2743H15.6317V8.37147V8.72881L15.2883 8.71488L14.9448 8.70096Z" fill="white"/>
<path d="M15.7264 8.72881V8.37147V8.01414H16.0837H16.4411L16.4271 8.35755L16.4132 8.70096L16.0698 8.71488L15.7264 8.72881Z" fill="white"/>
<path d="M16.5316 8.72464V8.36939V8.01414H16.8632H17.1948V8.36939V8.72464H16.8632H16.5316Z" fill="white"/>
<path d="M0.758545 9.52987V9.17462V8.81937H1.09011H1.42168V9.17462V9.52987H1.09011H0.758545Z" fill="white"/>
<path d="M1.54009 9.50619L1.52617 9.16278L1.51224 8.81937H1.87166H2.23108L2.21715 9.16278L2.20323 9.50619H1.87166H1.54009Z" fill="white"/>
<path d="M6.32412 9.50619L6.3102 9.16278L6.29627 8.81937H6.65569H7.01511L7.00118 9.16278L6.98726 9.50619H6.65569H6.32412Z" fill="white"/>
<path d="M7.10567 9.53404V9.17671V8.81937H7.46301H7.82034L7.80641 9.16278L7.79249 9.50619L7.44908 9.52011L7.10567 9.53404Z" fill="white"/>
<path d="M7.9109 9.52987V9.17462V8.81937H8.24247H8.57404V9.17462V9.52987H8.24247H7.9109Z" fill="white"/>
<path d="M10.1608 9.50619L10.1469 9.16278L10.133 8.81937H10.4903H10.8476V9.17671V9.53404L10.5042 9.52011L10.1608 9.50619Z" fill="white"/>
<path d="M10.9661 9.50619L10.9521 9.16278L10.9382 8.81937H11.2976H11.657L11.6431 9.16278L11.6292 9.50619H11.2976H10.9661Z" fill="white"/>
<path d="M14.1633 9.53418V9.1768V8.81937H14.4969H14.8306L14.8167 9.16278L14.8027 9.50619L14.483 9.52021L14.1633 9.53418Z" fill="white"/>
<path d="M14.9448 9.50619L14.9309 9.16278L14.917 8.81937H15.2764H15.6358L15.6219 9.16278L15.608 9.50619H15.2764H14.9448Z" fill="white"/>
<path d="M15.7501 9.50619L15.7362 9.16278L15.7222 8.81937H16.0816H16.4411L16.4271 9.16278L16.4132 9.50619H16.0816H15.7501Z" fill="white"/>
<path d="M16.5316 9.52987V9.17462V8.81937H16.8632H17.1948V9.17462V9.52987H16.8632H16.5316Z" fill="white"/>
<path d="M17.3369 9.52987V9.17462V8.81937H17.6684H18V9.17462V9.52987H17.6684H17.3369Z" fill="white"/>
<path d="M0.758545 10.2877V9.95617V9.6246H1.09011H1.42168V9.95617V10.2877H1.09011H0.758545Z" fill="white"/>
<path d="M1.51641 10.2877V9.95617V9.6246H1.87166H2.22691V9.95617V10.2877H1.87166H1.51641Z" fill="white"/>
<path d="M2.32164 10.2877V9.95617V9.6246H2.67689H3.03214V9.95617V10.2877H2.67689H2.32164Z" fill="white"/>
<path d="M3.12688 10.2877V9.95617V9.6246H3.45844H3.79001V9.95617V10.2877H3.45844H3.12688Z" fill="white"/>
<path d="M3.93211 10.2877V9.95617V9.6246H4.26367H4.59524V9.95617V10.2877H4.26367H3.93211Z" fill="white"/>
<path d="M4.73734 10.2877V9.95617V9.6246H5.06891H5.40047V9.95617V10.2877H5.06891H4.73734Z" fill="white"/>
<path d="M5.49521 10.2877V9.95617V9.6246H5.85046H6.20571V9.95617V10.2877H5.85046H5.49521Z" fill="white"/>
<path d="M6.30044 10.2877V9.95617V9.6246H6.65569H7.01094V9.95617V10.2877H6.65569H6.30044Z" fill="white"/>
<path d="M7.10567 10.2877V9.95617V9.6246H7.46092H7.81617V9.95617V10.2877H7.46092H7.10567Z" fill="white"/>
<path d="M10.1371 10.2877V9.95617V9.6246H10.4924H10.8476V9.95617V10.2877H10.4924H10.1371Z" fill="white"/>
<path d="M10.9424 10.2877V9.95617V9.6246H11.2976H11.6529V9.95617V10.2877H11.2976H10.9424Z" fill="white"/>
<path d="M16.5316 10.2877V9.95617V9.6246H16.8632H17.1948V9.95617V10.2877H16.8632H16.5316Z" fill="white"/>
<path d="M17.3369 10.2877V9.95617V9.6246H17.6684H18V9.95617V10.2877H17.6684H17.3369Z" fill="white"/>
<path d="M0.758545 11.093V10.7377V10.3825H1.09011H1.42168V10.7377V11.093H1.09011H0.758545Z" fill="white"/>
<path d="M1.51641 10.7693C1.51641 10.5913 1.53147 10.4305 1.54995 10.4121C1.56837 10.3937 1.72288 10.3848 1.89335 10.3924L2.20323 10.4062L2.21715 10.7496L2.23108 11.093H1.87374H1.51641V10.7693Z" fill="white"/>
<path d="M2.32164 10.7693C2.32164 10.5913 2.33671 10.4305 2.35518 10.4121C2.3736 10.3937 2.52811 10.3848 2.69859 10.3924L3.00846 10.4062L3.02238 10.7496L3.03631 11.093H2.67898H2.32164V10.7693Z" fill="white"/>
<path d="M3.12688 10.7693C3.12688 10.5913 3.14109 10.4314 3.15847 10.4141C3.17581 10.3967 3.32501 10.3825 3.49004 10.3825H3.79001V10.7377V11.093H3.45844H3.12688V10.7693Z" fill="white"/>
<path d="M3.93211 11.093V10.7377V10.3825H4.26367H4.59524V10.7377V11.093H4.26367H3.93211Z" fill="white"/>
<path d="M4.73734 11.093V10.7355V10.3782L5.05707 10.3921L5.37679 10.4062L5.39072 10.7496L5.40464 11.093H5.07099H4.73734Z" fill="white"/>
<path d="M10.1371 10.7693C10.1371 10.5913 10.1522 10.4305 10.1707 10.4121C10.1891 10.3937 10.3436 10.3848 10.5141 10.3924L10.824 10.4062L10.8379 10.7496L10.8518 11.093H10.4945H10.1371V10.7693Z" fill="white"/>
<path d="M10.9424 10.7693C10.9424 10.5913 10.9574 10.4305 10.9759 10.4121C10.9943 10.3937 11.1488 10.3848 11.3193 10.3924L11.6292 10.4062L11.6431 10.7496L11.657 11.093H11.2997H10.9424V10.7693Z" fill="white"/>
<path d="M11.7476 10.7693C11.7476 10.5913 11.7627 10.4305 11.7811 10.4121C11.7996 10.3937 11.9541 10.3848 12.1245 10.3924L12.4344 10.4062L12.4483 10.7496L12.4623 11.093H12.1049H11.7476V10.7693Z" fill="white"/>
<path d="M15.7264 10.7693C15.7264 10.5913 15.7415 10.4305 15.7599 10.4121C15.7784 10.3937 15.9329 10.3848 16.1033 10.3924L16.4132 10.4062L16.4271 10.7496L16.4411 11.093H16.0837H15.7264V10.7693Z" fill="white"/>
<path d="M16.5316 11.093V10.7377V10.3825H16.8632H17.1948V10.7377V11.093H16.8632H16.5316Z" fill="white"/>
<path d="M5.54257 11.093V10.7614V10.4298H5.87414H6.20571V10.7614V11.093H5.87414H5.54257Z" fill="white"/>
<path d="M17.3369 11.093V10.7614V10.4298H17.6684H18V10.7614V11.093H17.6684H17.3369Z" fill="white"/>
<path d="M0.758545 11.8982V11.543V11.1877H1.09011H1.42168V11.543V11.8982H1.09011H0.758545Z" fill="white"/>
<path d="M1.51641 11.5745C1.51641 11.3965 1.53062 11.2366 1.548 11.2193C1.56534 11.2019 1.7252 11.1877 1.90325 11.1877H2.22691V11.543V11.8982H1.87166H1.51641V11.5745Z" fill="white"/>
<path d="M11.7476 11.8982V11.5409V11.1835L12.091 11.1975L12.4344 11.2114L12.4483 11.5548L12.4623 11.8982H12.1049H11.7476Z" fill="white"/>
<path d="M12.5528 11.8982V11.543V11.1877H12.8844H13.216V11.543V11.8982H12.8844H12.5528Z" fill="white"/>
<path d="M13.3581 11.8982V11.543V11.1877H13.6896H14.0212V11.543V11.8982H13.6896H13.3581Z" fill="white"/>
<path d="M14.1633 11.8982V11.543V11.1877H14.4949H14.8264V11.543V11.8982H14.4949H14.1633Z" fill="white"/>
<path d="M14.9212 11.5745C14.9212 11.3965 14.9354 11.2366 14.9528 11.2193C14.9701 11.2019 15.13 11.1877 15.308 11.1877H15.6317V11.543V11.8982H15.2764H14.9212V11.5745Z" fill="white"/>
<path d="M15.7264 11.8982V11.5409V11.1835L16.0698 11.1975L16.4132 11.2114L16.4271 11.5548L16.4411 11.8982H16.0837H15.7264Z" fill="white"/>
<path d="M16.5316 11.8982V11.543V11.1877H16.8632H17.1948V11.543V11.8982H16.8632H16.5316Z" fill="white"/>
<path d="M0.758545 12.7034V12.3482V11.9929H1.09011H1.42168V12.3482V12.7034H1.09011H0.758545Z" fill="white"/>
<path d="M11.7476 12.7076V12.3482V11.9888L12.091 12.0027L12.4344 12.0166V12.3482V12.6798L12.091 12.6937L11.7476 12.7076Z" fill="white"/>
<path d="M12.5528 12.7034V12.3482V11.9929H12.8844H13.216V12.3482V12.7034H12.8844H12.5528Z" fill="white"/>
<path d="M13.3581 12.7034V12.3482V11.9929H13.6896H14.0212V12.3482V12.7034H13.6896H13.3581Z" fill="white"/>
<path d="M14.1633 12.7034V12.3482V11.9929H14.4949H14.8264V12.3482V12.7034H14.4949H14.1633Z" fill="white"/>
<path d="M14.9448 12.6798L14.9309 12.3363L14.917 11.9929H15.2743H15.6317V12.3503V12.7076L15.2883 12.6937L14.9448 12.6798Z" fill="white"/>
<path d="M15.7738 12.6561V12.3482V12.0403H16.0816H16.3895V12.3482V12.6561H16.0816H15.7738Z" fill="white"/>
</svg>
