<svg width="18" height="18" viewBox="0 0 18 18" fill="none" xmlns="http://www.w3.org/2000/svg">
<path d="M3.96399 4.47227C4.03489 4.209 4.19729 4.03064 4.44431 3.9447C4.55572 3.90596 4.70384 3.88723 4.77347 3.90313C4.97366 3.9488 14.6095 8.77786 14.7418 8.89879C15.0862 9.21373 15.0862 9.66093 14.7418 9.97733C14.6764 10.0373 13.1127 10.8406 11.2667 11.7624C7.59662 13.5951 7.66605 13.5678 7.30032 13.3234C6.95658 13.0938 6.95116 13.0594 6.95111 11.0973C6.95101 9.60274 6.96316 9.30817 7.03208 9.13594C7.16314 8.80845 7.56365 8.62356 7.90563 8.73269C8.15214 8.81139 8.35835 9.01187 8.41963 9.23236C8.44712 9.33141 8.46976 9.87397 8.46991 10.438C8.47007 11.0019 8.48171 11.4634 8.49579 11.4634C8.57737 11.4634 12.4708 9.47933 12.4708 9.43776C12.4708 9.35207 5.48289 5.88316 5.45616 5.95558C5.44314 5.99077 5.42663 7.911 5.41949 10.2227C5.40729 14.1591 5.40071 14.4365 5.31538 14.5927C5.19075 14.821 4.95046 14.9572 4.67219 14.9572C4.39393 14.9572 4.15364 14.821 4.02901 14.5927C3.94338 14.4359 3.9371 14.1333 3.92429 9.54815C3.91502 6.24772 3.92788 4.60637 3.96399 4.47227Z" fill="#FF1535"/>
</svg>
