<svg width="18" height="18" viewBox="0 0 18 18" fill="none" xmlns="http://www.w3.org/2000/svg">
<path fill-rule="evenodd" clip-rule="evenodd" d="M9.02962 17.9998C7.78584 18.0102 6.56699 17.6509 5.52775 16.9675C4.48851 16.2841 3.67572 15.3073 3.19252 14.1612C2.70932 13.015 2.57749 11.7512 2.81377 10.53C3.05004 9.30885 3.64377 8.18539 4.51961 7.30221C5.39544 6.41902 6.51391 5.81594 7.73307 5.56947C8.95223 5.323 10.2171 5.44427 11.3673 5.91788C12.5174 6.39149 13.5009 7.1961 14.193 8.2296C14.8851 9.2631 15.2545 10.4789 15.2545 11.7227C15.2689 15.1749 12.4818 17.9854 9.02962 17.9998ZM9.02962 6.10492C5.94644 6.13057 3.46019 8.63707 3.46019 11.7209C3.46019 14.8041 5.94622 17.3108 9.02939 17.3363V17.338H9.03142C12.1335 17.3376 14.6479 14.8225 14.6474 11.7205C14.6467 8.6184 12.1317 6.10402 9.02962 6.10448V6.10492ZM10.916 9.53617C8.78054 9.67027 7.91317 7.13317 9.84547 7.01235C11.9031 6.88342 13.0045 9.3978 10.916 9.53572V9.53617ZM8.62079 4.78507C7.54289 4.82194 6.49362 5.14147 5.57812 5.71163C5.44312 5.28188 4.84754 3.67852 3.31304 2.78888C3.85296 2.81922 4.37605 2.9877 4.83219 3.27817C5.28833 3.56865 5.66223 3.97138 5.91809 4.4478C5.91809 4.4478 5.32319 1.9179 5.48632 0C6.69277 1.48635 7.62022 3.91613 7.62022 3.91613C7.56496 3.37602 7.64808 2.83073 7.86174 2.33161C8.0754 1.83249 8.41257 1.39596 8.84152 1.06312C8.06167 2.69662 8.49884 4.3848 8.62079 4.78507Z" fill="#F79520"/>
</svg>
