<svg width="18" height="18" viewBox="0 0 18 18" fill="none" xmlns="http://www.w3.org/2000/svg">
<path fill-rule="evenodd" clip-rule="evenodd" d="M2.00402 1.62017C1.74197 1.73415 1.69206 1.90376 1.73326 2.54044C1.77028 3.11199 1.94667 3.54245 2.31558 3.96155C2.64602 4.33705 2.67573 4.49755 2.38716 4.34835C2.1374 4.21921 2.118 4.22081 2.118 4.37087C2.118 4.5648 2.36589 4.83204 2.67061 4.96662L2.94874 5.0895L3.04843 4.89006C3.10326 4.7804 3.23047 4.6298 3.33109 4.55537C3.61314 4.34682 3.68153 4.47136 3.65847 5.15151C3.63428 5.86708 3.75078 6.23687 4.14688 6.70089C4.31037 6.89242 4.44409 7.08031 4.44409 7.11845C4.44409 7.18651 4.20164 7.16159 3.96226 7.06901C3.82841 7.01723 3.80953 7.13321 3.90922 7.39546C3.97568 7.57025 4.29967 7.70177 4.6656 7.70244C4.78642 7.7027 4.84411 7.73261 4.82663 7.78591C4.77931 7.92999 4.36606 8.16805 4.16316 8.16805C3.9784 8.16805 3.97063 8.17922 4.01336 8.38405C4.08109 8.7089 4.22657 8.89911 4.40727 8.89911C4.495 8.89911 4.79194 8.77769 5.06702 8.62928C5.46863 8.41269 5.62262 8.36351 5.84785 8.38006C6.00224 8.39142 6.13748 8.43057 6.14845 8.46712C6.15948 8.50367 5.84778 8.71362 5.4558 8.9336C4.83746 9.28072 4.73877 9.35987 4.70993 9.53174C4.69165 9.64073 4.62134 9.8114 4.55375 9.91109C4.29316 10.2953 4.28851 10.9469 4.54491 11.1597C4.73937 11.321 4.88272 12.0516 4.85448 12.7372C4.84305 13.0151 4.70993 13.1494 4.70993 12.883C4.70993 12.6739 4.36626 11.9127 4.02207 11.3597C3.66525 10.7863 3.62776 10.4977 3.85725 10.0895L4.00147 9.83293L3.6792 9.31621C3.50202 9.03196 3.22867 8.56016 3.07176 8.26774C2.91485 7.97532 2.78559 7.75667 2.78452 7.78179C2.77941 7.90281 3.00663 8.78912 3.16082 9.24935C3.25592 9.5334 3.31567 9.78382 3.29354 9.80595C3.27141 9.82808 3.13244 9.79784 2.9847 9.73869C2.83703 9.67961 2.71614 9.64399 2.71614 9.65961C2.71614 9.67516 2.75907 9.89175 2.81164 10.1409C2.9407 10.7532 3.25366 11.6219 3.65082 12.4703C3.83193 12.8571 3.96618 13.1874 3.94923 13.2043C3.8627 13.2908 3.31141 12.855 3.07017 12.5094C2.41128 11.5655 2.18386 10.7995 2.12637 9.3311L2.08477 8.26774L1.9343 8.6665C1.73924 9.18356 1.58891 9.90697 1.58745 10.3356C1.58499 11.0757 1.67538 11.2983 2.63007 12.9023C3.508 14.3775 3.54402 14.4268 3.5962 14.2256C3.62597 14.1106 3.68897 14.0165 3.73616 14.0165C3.78335 14.0165 3.98273 14.3641 4.17918 14.7889C4.59117 15.68 4.6315 15.6695 4.63882 14.6692C4.6424 14.1701 4.66753 14.002 4.75087 13.9186C4.97337 13.6961 5.22353 14.012 5.28334 14.5911L5.32554 14.9994L5.79861 14.7415C6.40831 14.4092 6.7113 14.3964 7.07669 14.6877C7.62877 15.1278 7.67284 15.137 9.06457 15.1011C9.75828 15.0833 10.4208 15.0397 10.5369 15.0042C10.653 14.9688 10.8773 14.8371 11.0354 14.7114C11.4372 14.392 11.7219 14.3999 12.3804 14.7488L12.8845 15.0159V14.5642C12.8845 14.0765 12.9983 13.8171 13.2124 13.8171C13.4468 13.8171 13.5146 14.0093 13.5491 14.7712L13.5823 15.5059L13.9769 14.7266C14.1939 14.2979 14.4032 13.9576 14.4421 13.9704C14.4809 13.9831 14.5222 14.0735 14.5337 14.1712C14.5453 14.2689 14.5752 14.3482 14.6002 14.3475C14.6499 14.346 16.1671 11.997 16.3497 11.6389C16.5965 11.1548 16.5613 9.73757 16.278 8.75429C16.1291 8.23757 16.097 8.33254 16.0496 9.43079C15.9913 10.7791 15.5611 12.0305 14.9165 12.7268C14.6619 13.0019 14.1472 13.2924 14.1472 13.1609C14.1472 13.1279 14.34 12.7013 14.5756 12.2129C14.9561 11.4243 15.5309 9.72892 15.4464 9.64452C15.4308 9.6289 15.2809 9.66845 15.1134 9.73238C14.9459 9.79638 14.7972 9.83692 14.783 9.8225C14.7687 9.80808 14.9021 9.33329 15.0792 8.76745C15.2564 8.20155 15.3938 7.73101 15.3846 7.72171C15.3504 7.68761 14.6247 9.01129 14.4791 9.37337C14.3377 9.7248 14.3351 9.7575 14.4372 9.90318C14.6583 10.2189 14.5565 10.6207 14.0573 11.4023C13.9367 11.5911 13.7565 12.0015 13.6569 12.3143C13.4113 13.0853 13.3238 13.1166 13.3816 12.413C13.4409 11.6911 13.5256 11.3121 13.6855 11.0533C13.8307 10.8185 13.8568 10.3642 13.7379 10.1421C13.6956 10.063 13.5877 9.94067 13.4983 9.87029C13.3682 9.768 13.3425 9.69995 13.3701 9.53034C13.4041 9.32106 13.3949 9.31289 12.6647 8.89645L11.9249 8.4745L12.1506 8.41601C12.4425 8.34038 12.8769 8.44884 13.3387 8.71276C13.6395 8.88455 13.7178 8.90409 13.8551 8.84156C14.0155 8.76852 14.1472 8.52986 14.1472 8.3124C14.1472 8.23318 14.0433 8.17005 13.7983 8.10046C13.5244 8.02264 13.4448 7.96927 13.4281 7.8521C13.4098 7.72324 13.4371 7.7027 13.6275 7.7019C14.0166 7.70031 14.1329 7.63617 14.2423 7.36263C14.3746 7.03206 14.3734 7.01923 14.2181 7.10237C14.0613 7.18617 13.9448 7.18824 13.8202 7.10941C13.7451 7.0619 13.7884 6.98008 14.0318 6.70933C14.4311 6.26531 14.5055 6.02486 14.4616 5.32132C14.4216 4.68031 14.4927 4.42896 14.7053 4.45986C14.825 4.47728 15.0927 4.7905 15.1597 4.99168C15.2263 5.19112 15.9292 4.78585 16.0265 4.49196C16.1083 4.245 16.0633 4.21496 15.8087 4.34662C15.5122 4.49994 15.484 4.42192 15.7305 4.13029C16.2374 3.53076 16.4733 2.94332 16.4733 2.28085C16.4733 2.04066 16.4342 1.889 16.3419 1.7717C16.1241 1.49476 15.9176 1.50393 15.101 1.82666C14.097 2.22349 13.6449 2.33142 12.7848 2.37967L12.0537 2.42075L12.386 2.53599C12.6917 2.64199 12.7662 2.64332 13.3165 2.553C14.0341 2.43524 14.2773 2.42939 14.525 2.52396C14.7104 2.59467 14.7076 2.59746 14.2303 2.81884C13.7386 3.04693 13.5528 3.20065 13.9892 3.01829C14.1216 2.96299 14.2384 2.91773 14.2487 2.91773C14.2591 2.91773 14.2524 3.10468 14.2339 3.33311C14.2089 3.64181 14.165 3.77912 14.0631 3.86764C13.9313 3.98228 13.9302 3.99584 14.0366 4.21882C14.1732 4.50539 14.1802 5.10266 14.0506 5.41296C13.9446 5.66657 13.6902 6.00273 13.1895 6.55042C12.6534 7.137 11.7416 7.49282 11.2562 7.30487L11.0568 7.22771L11.2532 7.0831C11.3612 7.00361 11.6211 6.87328 11.8309 6.79347C12.6701 6.47426 13.2399 5.9681 13.5782 5.2411C13.7487 4.8751 13.8001 4.48605 13.6874 4.4164C13.6537 4.3956 13.5931 4.4792 13.5525 4.60209C13.4205 5.00204 13.2255 5.11981 12.5884 5.18441C11.7767 5.26662 11.3503 5.52149 11.059 6.09836C10.9305 6.35284 10.4011 6.90532 10.2857 6.90532C10.2323 6.90532 10.222 6.80696 10.2519 6.58206C10.2844 6.33669 10.2707 6.23892 10.1953 6.17632C10.0636 6.06693 10.1301 5.94949 10.6203 5.42539L11.0097 5.00909L10.7509 4.88315C10.6084 4.8139 10.4919 4.73215 10.4919 4.70145C10.4919 4.67081 10.7686 4.64176 11.1067 4.63698C11.6873 4.62874 11.7003 4.62555 11.3413 4.57949C10.9752 4.53257 10.6248 4.37267 10.6248 4.25251C10.6248 4.11434 11.1479 3.98787 11.7747 3.97451C12.7328 3.95404 12.7245 3.90572 11.7107 3.60187C11.2049 3.45027 10.6415 3.25674 10.4587 3.17181L10.1264 3.01742L10.9893 2.98419L11.8522 2.95096L11.3843 2.7357C10.7342 2.43656 10.4564 2.40234 8.85409 2.42387C7.45352 2.44275 7.44734 2.44348 6.95999 2.64777C6.18188 2.97396 6.1858 2.98207 7.12301 2.9832C7.63356 2.98379 7.95894 3.00905 7.93595 3.04627C7.87162 3.15028 6.89798 3.49952 6.14871 3.68727C5.75946 3.78477 5.44098 3.88785 5.44098 3.91629C5.44098 3.94474 5.83722 3.97903 6.32158 3.99245C7.19227 4.01658 7.59734 4.11095 7.45245 4.25583C7.41783 4.29046 7.18283 4.39174 6.93028 4.48087L6.47111 4.64289L7.08978 4.64429C7.74727 4.64575 7.80077 4.68995 7.3965 4.89737L7.16748 5.01487L7.6002 5.48899C8.04388 5.97508 8.10144 6.10109 7.94074 6.23447C7.86982 6.29329 7.86271 6.3741 7.90977 6.58372C7.984 6.91409 7.95276 6.95596 7.72341 6.83341C7.54743 6.73937 7.35463 6.50098 6.95062 5.87798C6.66245 5.43357 6.29061 5.24655 5.59929 5.19843C4.97763 5.15517 4.81932 5.06996 4.62785 4.67586C4.54876 4.51303 4.45672 4.37985 4.42329 4.37985C4.33217 4.37985 4.43837 4.9726 4.57787 5.24229C4.97331 6.00685 5.48644 6.47486 6.22434 6.74395C6.70079 6.91774 7.10248 7.17999 7.10248 7.31723C7.10248 7.43194 6.16839 7.34594 5.87297 7.20405C5.56872 7.05791 4.2796 5.83571 4.13478 5.55605C4.024 5.34218 4.00964 4.76372 4.10302 4.28036C4.13837 4.09766 4.14409 3.91822 4.11584 3.8816C4.0876 3.84491 4.02891 3.6654 3.98545 3.48264C3.94199 3.29988 3.88981 3.09498 3.86954 3.02732C3.83724 2.91933 3.86004 2.90956 4.0553 2.94771C4.2271 2.9812 4.19061 2.95023 3.8958 2.81193C3.24954 2.50894 3.3703 2.46654 4.46449 2.61215C5.13467 2.70127 5.56154 2.66804 5.97419 2.49452C6.16108 2.41596 6.13409 2.40952 5.62614 2.41144C4.92014 2.4141 3.79837 2.15431 2.94934 1.79157C2.60242 1.64337 2.29591 1.52327 2.26813 1.52467C2.24042 1.52613 2.12152 1.56907 2.00402 1.62017ZM5.8848 5.75264C5.86001 5.77736 5.83974 5.92264 5.83974 6.07537C5.83974 6.63117 6.38259 6.78296 6.64138 6.29954C6.69422 6.20078 6.69123 6.13963 6.63008 6.06593C6.48015 5.88529 5.96761 5.66983 5.8848 5.75264ZM11.6859 5.9243C11.4115 6.1088 11.3635 6.31476 11.5512 6.5025C11.7376 6.68892 11.8624 6.6749 12.0963 6.44096C12.2505 6.28678 12.2902 6.19393 12.274 6.02559C12.257 5.84974 12.2213 5.80501 12.0847 5.78906C11.9903 5.77809 11.815 5.83751 11.6859 5.9243ZM6.86601 7.82014C6.67215 7.95478 6.5708 8.21663 6.5708 8.58303C6.5708 8.92829 6.55372 8.9762 6.40671 9.04319L6.24269 9.11796L6.67448 9.63987C7.10122 10.1557 7.10407 10.1618 6.91805 10.1618C6.75104 10.1618 6.46765 10.0078 5.98748 9.65602C5.79967 9.51838 5.73706 9.56936 5.84247 9.77398C5.97625 10.0336 6.25213 10.2926 6.6578 10.5395C6.87007 10.6687 7.0309 10.7873 7.01508 10.8031C6.99927 10.8189 6.72725 10.7669 6.4107 10.6875C5.81635 10.5384 5.69114 10.5477 5.84207 10.7295C5.9813 10.8973 6.25691 11.0149 6.62563 11.0638C6.81345 11.0887 7.02 11.1477 7.0846 11.195C7.1922 11.2736 7.18622 11.2848 7.01236 11.3284C6.90802 11.3546 6.63892 11.3601 6.41429 11.3407C6.18965 11.3212 5.95332 11.3252 5.88906 11.3494C5.78153 11.39 5.78053 11.4054 5.87683 11.5428C6.03514 11.7688 6.49603 11.9784 6.83664 11.9792C7.18635 11.98 8.65292 11.4692 8.84113 11.281C8.96501 11.1571 9.01492 10.573 8.92228 10.3316C8.89975 10.2728 8.63364 10.1064 8.33105 9.962C7.40214 9.51865 7.04944 8.97281 7.16116 8.15144C7.21008 7.79176 7.20503 7.76936 7.07476 7.77029C6.9986 7.77089 6.90469 7.79329 6.86601 7.82014ZM11.0236 8.38903V9.00877L10.6571 9.37822C10.4556 9.58138 10.0849 9.85573 9.83358 9.98785C9.58216 10.1199 9.35825 10.2754 9.33606 10.3333C9.31386 10.3912 9.29565 10.6109 9.29565 10.8216C9.29565 11.1036 9.32635 11.2312 9.41195 11.3056C9.56667 11.4401 11.1273 12.0227 11.3326 12.0227C11.6415 12.0227 12.3528 11.5808 12.3528 11.389C12.3528 11.3408 12.195 11.2958 11.9463 11.2732C11.4472 11.228 11.3132 11.1276 11.6643 11.0617C11.998 10.9991 12.2661 10.8555 12.3532 10.6929C12.445 10.5212 12.3477 10.5211 11.6907 10.6917C11.418 10.7625 11.1824 10.808 11.1673 10.7929C11.1521 10.7777 11.2818 10.6819 11.4554 10.5799C11.9524 10.288 12.2151 10.0227 12.2645 9.76309C12.3015 9.56876 12.2932 9.54231 12.2145 9.60239C12.1626 9.642 11.9963 9.77153 11.8449 9.89022C11.6628 10.033 11.4716 10.117 11.28 10.1384C10.9511 10.1751 10.9147 10.224 11.6767 9.60425L12.1579 9.2128L11.9546 9.08912C11.7312 8.95327 11.6217 8.73356 11.6217 8.4208C11.6217 8.27319 11.5563 8.15522 11.3844 7.99313C11.2539 7.87005 11.1193 7.76929 11.0853 7.76929C11.0514 7.76929 11.0236 8.04816 11.0236 8.38903ZM7.63316 8.46891C7.56882 8.58921 7.56132 8.68823 7.60691 8.81783C7.71059 9.11311 8.03358 9.17817 9.27212 9.15325C10.2157 9.13431 10.362 9.11643 10.485 9.00511C10.6508 8.85498 10.6641 8.65241 10.5214 8.44871C10.3932 8.26575 10.2925 8.25857 10.2925 8.43236C10.2925 8.7097 10.0002 8.79942 9.09627 8.79942C8.19235 8.79942 7.89999 8.7097 7.89999 8.43236C7.89999 8.24714 7.74016 8.269 7.63316 8.46891ZM8.12044 12.3904C7.10573 12.6061 6.42585 13.1353 6.17503 13.9047C6.06358 14.2467 6.13629 14.2893 6.38219 14.0262C6.58163 13.8127 6.8165 13.6842 7.00711 13.6842C7.07603 13.6842 7.10248 13.7683 7.10248 13.9869V14.2897L7.48462 14.4673C7.98121 14.6981 8.7322 14.7237 8.96023 14.5176C9.06776 14.4205 9.11721 14.4081 9.15482 14.469C9.30436 14.7109 10.1534 14.6721 10.6833 14.3991C10.9621 14.2554 10.9906 14.2186 10.9926 13.9991C10.9938 13.8661 11.0141 13.738 11.0377 13.7144C11.1284 13.6237 11.4777 13.767 11.785 14.0208C11.9613 14.1666 12.1193 14.2722 12.1359 14.2555C12.1527 14.2388 12.0717 14.0329 11.956 13.798C11.6053 13.0857 10.9892 12.6042 10.1898 12.4178C9.70391 12.3045 8.5939 12.2898 8.12044 12.3904Z" fill="#EB2A2E"/>
</svg>
