<svg width="18" height="18" viewBox="0 0 18 18" fill="none" xmlns="http://www.w3.org/2000/svg">
<path d="M4.10455 6.40055C2.08884 6.43101 1.26967 3.93998 2.9255 2.81477C3.88507 2.16272 5.24967 2.52221 5.77361 3.56514C6.41817 4.84785 5.51672 6.37918 4.10455 6.40055Z" fill="white"/>
<path d="M12.3906 5.55467C11.7693 4.72108 12.0714 3.31813 12.993 2.75626C14.3533 1.92681 16.1423 3.03826 15.982 4.613C15.7941 6.45773 13.5101 7.0566 12.3906 5.55467Z" fill="white"/>
<path d="M6.94491 9.13551C6.9401 8.31046 7.58948 7.40928 8.36135 7.16975C9.61575 6.78061 10.8836 7.74231 10.8836 9.08274C10.8836 11.1172 8.26076 11.7983 7.24548 10.0276C7.08144 9.74133 6.94611 9.3399 6.94491 9.13551Z" fill="white"/>
<path d="M2 13.8122C2 13.2559 2.48626 12.4047 2.97386 12.1074C3.92367 11.5283 5.27198 11.9179 5.77361 12.9163C6.44262 14.2478 5.50737 15.7173 3.99021 15.7185C2.95904 15.7194 2 14.8007 2 13.8122Z" fill="white"/>
<path d="M12.2665 12.9115C12.4025 12.6556 12.7121 12.3108 12.9541 12.1455C13.5533 11.7366 14.4909 11.7377 15.1053 12.1482C16.2982 12.9452 16.2982 14.6188 15.1053 15.4158C13.4636 16.5125 11.3457 14.6443 12.2665 12.9115Z" fill="white"/>
</svg>
