<svg width="18" height="18" viewBox="0 0 18 18" fill="none" xmlns="http://www.w3.org/2000/svg">
<path d="M8.33873 1.17345C8.47148 1.17345 8.58011 1.13442 8.58011 1.08672C8.58011 1.03903 8.79209 1 9.05117 1C9.31026 1 9.52224 1.03903 9.52224 1.08672C9.52224 1.13442 9.63087 1.17345 9.76361 1.17345C10.1054 1.17345 10.9205 1.42825 11.3293 1.66284C12.2742 2.20504 12.7634 3.14635 12.9688 4.81763C13.0622 5.5783 13.0311 5.59642 11.6305 5.59642H10.4644V5.13522C10.4644 4.5637 10.2431 3.85316 10.0026 3.65292C9.72546 3.42197 8.82506 3.33672 8.46291 3.50713C7.90365 3.77025 7.7775 4.03893 7.79437 4.93081C7.81811 6.17687 8.02331 6.47234 10.3298 8.58167C11.2205 9.39627 12.0159 10.1798 12.0973 10.3229C12.7755 11.5157 13.0157 12.3464 12.9644 13.3223C12.8726 15.0708 12.22 16.1445 10.8825 16.7483C10.3483 16.9894 10.2657 17.0007 9.05117 17C7.82527 16.9992 7.75715 16.9895 7.16691 16.731C6.49846 16.4383 5.58893 15.6375 5.40474 15.1795C5.07735 14.3654 5 13.9688 5 13.1035V12.1875H6.35403H7.70797L7.7498 13.1228C7.8004 14.2531 7.93842 14.5323 8.55335 14.7484C8.90656 14.8726 9.02206 14.8775 9.37065 14.7827C10.1131 14.5809 10.4223 13.7983 10.1896 12.7098C10.0261 11.9444 9.52884 11.323 7.68998 9.58551C6.26924 8.24309 6.03701 7.98231 5.68173 7.33066C5.4608 6.92539 5.23421 6.37911 5.17835 6.11677C4.77021 4.20258 5.40333 2.44917 6.79005 1.65313C7.18405 1.42695 8.00239 1.17345 8.33873 1.17345Z" fill="white"/>
</svg>
