<svg width="18" height="18" viewBox="0 0 18 18" fill="none" xmlns="http://www.w3.org/2000/svg">
<g clip-path="url(#clip0_4103_12594)">
<path fill-rule="evenodd" clip-rule="evenodd" d="M6.48382 3.58246C6.32317 3.12638 6.16657 2.67796 6.04102 2.21986C5.91352 1.74967 5.8139 1.27236 5.74267 0.790432C5.70217 0.522007 5.70847 0.514132 5.96609 0.424582C6.48742 0.243232 7.01909 0.100807 7.56539 0.0173316C7.81829 -0.0209184 7.83089 -0.0128184 7.86509 0.245932C8.00932 1.33606 8.31509 2.37871 8.78017 3.37433C8.83282 3.48683 8.86117 3.67066 8.98222 3.67651C9.13612 3.68416 9.15614 3.48931 9.21149 3.37141C9.67352 2.39284 9.97948 1.34796 10.1182 0.274732C10.156 -0.0170934 10.1641 -0.0238434 10.458 0.0195816C11.0052 0.100807 11.5339 0.255157 12.0557 0.433132C12.2933 0.514132 12.2888 0.524032 12.2515 0.781882C12.1266 1.64498 11.9025 2.48198 11.6064 3.30121C11.5733 3.39346 11.4716 3.50326 11.5711 3.59033C11.6496 3.65873 11.7497 3.56986 11.8341 3.53476C12.6864 3.18083 13.432 2.66716 14.0886 2.02163C14.1192 1.99193 14.1489 1.96178 14.179 1.93208C14.4193 1.69381 14.4187 1.69471 14.6871 1.91858C15.0865 2.25113 15.4699 2.60033 15.8047 2.99926C15.9739 3.20086 15.9721 3.20401 15.7972 3.38716C14.5186 4.72501 12.9753 5.60341 11.1798 6.04418C11.0974 6.06443 11.0135 6.07951 10.9325 6.10403C10.7386 6.16253 10.7248 6.20438 10.8736 6.35603C11.3647 6.85688 11.9072 7.29676 12.4913 7.68488C12.6731 7.80593 12.6801 7.80121 12.8925 7.60253C13.7907 6.76328 14.8043 6.09638 15.9223 5.58901C16.2499 5.44051 16.5877 5.31293 16.9252 5.18783C17.154 5.10323 17.1922 5.12281 17.2865 5.35028C17.4976 5.85968 17.6785 6.37966 17.7941 6.92011C17.8459 7.16311 17.8429 7.17458 17.5954 7.26211C17.0551 7.45116 16.5337 7.69049 16.038 7.97693C15.7176 8.16343 15.4078 8.3676 15.1101 8.58848C15.0275 8.64968 14.8957 8.69986 14.9092 8.81348C14.9263 8.95501 15.0858 8.94466 15.1891 8.97751C15.9471 9.21761 16.7304 9.36944 17.5232 9.42998C18.1219 9.47611 18.0056 9.45698 17.9584 9.96481C17.9132 10.4396 17.8224 10.9088 17.687 11.3661C17.615 11.6102 17.6083 11.6197 17.3549 11.601C16.4879 11.5378 15.63 11.3822 14.796 11.1371C12.6778 10.5161 10.8457 9.41446 9.28462 7.85791C8.97929 7.55371 9.03532 7.51996 8.70749 7.85026C7.04969 9.51976 5.08072 10.6526 2.80394 11.2464C2.11701 11.4262 1.41536 11.5441 0.707394 11.5988C0.380469 11.6235 0.384969 11.6145 0.293394 11.3094C0.146019 10.82 0.0724444 10.3176 0.0150694 9.81226C-0.0231806 9.47566 -0.0164306 9.46441 0.339969 9.43943C1.11464 9.38543 1.87537 9.25651 2.61967 9.03421C2.7515 8.99467 2.88234 8.9519 3.01207 8.90596C3.12434 8.86613 3.13717 8.79211 3.05009 8.71831C2.92884 8.6158 2.80245 8.51953 2.67142 8.42986C1.96919 7.94836 1.22354 7.55011 0.417369 7.26953C0.137019 7.17233 0.134769 7.16806 0.201144 6.88681C0.322869 6.37066 0.478569 5.86531 0.695019 5.37953C0.815394 5.10953 0.819669 5.10256 1.09507 5.19751C2.00708 5.51369 2.87507 5.94481 3.67807 6.48046C4.19107 6.82133 4.66852 7.20653 5.12482 7.61896C5.32732 7.80188 5.32732 7.79896 5.55232 7.64888C6.07275 7.30231 6.55805 6.9057 7.00132 6.46471C7.05374 6.41251 7.10797 6.36121 7.15499 6.30428C7.22992 6.21383 7.19594 6.14858 7.09559 6.11213C7.03619 6.09053 6.97319 6.07838 6.91132 6.06398C5.08612 5.64391 3.52282 4.75988 2.21737 3.41911C2.18767 3.38873 2.15887 3.35791 2.12872 3.32776C2.04997 3.24833 2.03489 3.16756 2.11499 3.07756C2.53102 2.60956 2.97629 2.17238 3.46994 1.78516C3.57164 1.70528 3.64094 1.75163 3.71474 1.82746C3.96584 2.08621 4.22594 2.33416 4.50899 2.55848C5.04019 2.98161 5.63048 3.3247 6.26107 3.57683C6.31732 3.59933 6.37582 3.63533 6.48382 3.58246Z" fill="#E6642B"/>
<path fill-rule="evenodd" clip-rule="evenodd" d="M8.96627 17.9217C8.70167 17.9217 8.43662 17.9328 8.17269 17.9186C7.93892 17.906 7.90584 17.8623 7.90494 17.6232C7.90224 16.8188 7.89527 16.0142 7.90854 15.2098C7.91282 14.9502 7.83812 14.7477 7.67949 14.5438C6.80199 13.4168 5.93529 12.2812 5.06724 11.147C4.84517 10.8567 4.84899 10.8549 5.18739 10.692C5.62682 10.481 6.05724 10.254 6.47057 9.99476C6.78332 9.79856 6.78557 9.80261 7.00157 10.0845C7.58747 10.8489 8.17337 11.613 8.75972 12.3768C8.99417 12.6824 9.00047 12.6817 9.22817 12.3845C9.82667 11.6031 10.4252 10.8216 11.0246 10.0409C11.2077 9.80238 11.2115 9.79901 11.4554 9.95246C11.9221 10.2461 12.4088 10.5017 12.9067 10.7377C13.1231 10.8401 13.1299 10.8729 12.9848 11.0631C12.0852 12.2405 11.1875 13.419 10.2789 14.5895C10.1399 14.7688 10.0784 14.9454 10.0807 15.1691C10.089 15.9735 10.0845 16.7778 10.0834 17.5824C10.0829 17.8727 10.0733 17.8968 9.79157 17.9157C9.51752 17.9343 9.24144 17.9199 8.96649 17.9199V17.9217H8.96627Z" fill="#E6642B"/>
</g>
<defs>
<clipPath id="clip0_4103_12594">
<rect width="18" height="18" fill="white"/>
</clipPath>
</defs>
</svg>
