<svg width="18" height="18" viewBox="0 0 18 18" fill="none" xmlns="http://www.w3.org/2000/svg">
<g clip-path="url(#clip0_4103_12597)">
<path fill-rule="evenodd" clip-rule="evenodd" d="M2.7243 0.224609H10.3221C9.39735 0.499109 8.3727 0.624434 8.22285 1.62411C7.34805 5.22321 6.498 8.82231 5.8734 12.4714C6.2982 12.5962 7.59802 12.9965 7.59802 12.9965L0 13.0213C0 13.0213 1.49962 12.596 1.99935 12.4462C2.99925 8.77236 3.54893 6.32301 4.2489 2.57406C4.27365 2.47393 4.5234 1.47426 4.39875 1.07443C4.3488 0.924359 4.2489 0.724559 4.09882 0.624434C3.62362 0.324509 3.32437 0.299534 2.7243 0.224609ZM12.2017 4.62628C9.40275 6.02556 8.2278 10.1246 9.92745 12.724C10.2024 13.2238 11.227 13.5736 11.927 13.4238C12.7516 13.1493 13.0516 12.8739 13.5016 12.349C13.3515 13.2238 13.1767 13.6987 12.7768 14.9484C12.177 16.2979 11.6518 17.4477 10.2773 17.173C10.8772 16.3981 11.677 15.6481 11.1773 14.5985C10.7023 13.5741 9.153 13.8486 9.07785 15.0737C9.02767 16.223 9.59918 17.3993 10.6524 17.5226C11.1769 17.5843 11.4021 17.5975 11.902 17.5975C13.5515 17.5728 15.0511 16.3234 15.4759 14.6984C16.5004 11.3743 17.1506 7.92546 18 4.55113C16.8007 4.52638 15.876 4.40128 15.0007 5.02633C14.1514 4.27663 13.1517 4.07638 12.2022 4.62606L12.2017 4.62628ZM11.9268 12.8491L11.902 12.324C12.0517 9.80016 13.0513 5.35101 13.4514 5.07606C13.8762 4.65126 14.4261 4.92598 14.701 5.35101C14.6009 7.17553 13.4514 11.0494 13.4514 11.0494C13.0264 11.8742 12.6265 12.8491 11.9268 12.8491Z" fill="#334C90"/>
</g>
<defs>
<clipPath id="clip0_4103_12597">
<rect width="18" height="18" fill="white"/>
</clipPath>
</defs>
</svg>
