<svg width="18" height="18" viewBox="0 0 18 18" fill="none" xmlns="http://www.w3.org/2000/svg">
<rect width="18" height="18" rx="9" fill="white"/>
<path d="M14.9581 3.64739C14.5573 3.02718 13.7557 2.59262 12.4984 2.3226C11.5322 2.11165 10.3213 2.00195 8.98813 2.00195C7.65912 2.00195 6.44403 2.11165 5.48209 2.3226C4.22903 2.59684 3.42319 3.02718 3.0266 3.64739C2.36842 4.66418 2.52453 6.14507 2.69751 7.86222C2.73126 8.17865 2.76502 8.50352 2.79033 8.81995C2.84518 9.45281 2.97175 10.7016 3.2038 11.9041C3.54132 13.655 3.90416 14.271 4.14887 14.5832C5.19097 15.8995 8.119 16.0008 8.99234 16.0008C9.86569 16.0008 12.7937 15.8995 13.8358 14.5832C14.0805 14.271 14.4476 13.6592 14.7809 11.9041C15.0129 10.6974 15.1395 9.45281 15.1944 8.81995C15.2197 8.50352 15.2534 8.17865 15.2872 7.86222C15.4602 6.14507 15.612 4.65996 14.9581 3.64739ZM14.802 7.81159C14.7682 8.12802 14.7345 8.45711 14.7092 8.77776C14.6543 9.40218 14.532 10.6299 14.3041 11.8155C13.9877 13.4651 13.6671 14.0136 13.4519 14.2836C12.5237 15.4607 9.57036 15.5198 8.98813 15.5198C8.4059 15.5198 5.45256 15.4607 4.52436 14.2836C4.30919 14.0136 3.98854 13.4609 3.67211 11.8155C3.44428 10.6299 3.32193 9.4064 3.26708 8.77776C3.23755 8.45711 3.20802 8.12802 3.17426 7.81159C3.0055 6.18304 2.86205 4.77809 3.42741 3.90475C3.75649 3.39846 4.46108 3.0314 5.58335 2.79092C6.51576 2.5884 7.69287 2.48293 8.98813 2.48293C10.2834 2.48293 11.4605 2.5884 12.3929 2.79092C13.5152 3.03562 14.2198 3.39846 14.5488 3.90475C15.1142 4.78231 14.9707 6.18726 14.802 7.81159ZM8.99234 3.17485C11.4942 3.17485 13.5236 3.58832 13.975 4.28446C14.5024 5.10296 14.1818 6.92981 14.0257 8.72291C13.8696 10.516 13.4941 13.1234 12.9161 13.8617C12.4098 14.503 10.5998 14.8321 8.99234 14.8321C7.3891 14.8321 5.57491 14.4988 5.06862 13.8617C4.48639 13.1276 4.1109 10.516 3.95901 8.72291C3.80712 6.92981 3.48226 5.10296 4.00964 4.28446C4.46108 3.58832 6.49044 3.17485 8.99234 3.17485ZM5.30067 5.66409C5.23316 5.70207 5.20363 5.82442 5.20363 5.82442L5.13191 6.14085C5.13191 6.14085 5.10659 6.22101 5.153 6.31805C5.20363 6.41509 5.52006 6.47415 5.52006 6.47415C5.52006 6.47415 6.07276 6.55853 6.29637 6.83277C6.51998 7.10701 6.43138 7.48251 6.43138 7.48251L5.82805 10.4401C5.82805 10.4401 5.76898 10.727 5.6171 10.8662C5.46943 11.0012 5.22473 11.0096 5.22473 11.0096C5.22473 11.0096 5.08128 11.0139 4.98846 11.0518C4.9083 11.0856 4.88298 11.2164 4.88298 11.2164L4.84501 11.4104C4.84501 11.4104 4.82392 11.4906 4.87033 11.5623C4.91674 11.6341 5.04753 11.6509 5.04753 11.6509L8.0979 11.672C8.0979 11.672 8.19072 11.6678 8.24135 11.6172C8.29198 11.5666 8.30464 11.4611 8.30464 11.4611L8.35527 11.1826C8.35527 11.1826 8.37636 11.0982 8.33417 11.0476C8.28354 10.9885 8.24135 10.9928 8.10212 10.959C7.95868 10.9253 7.87429 10.8831 7.73507 10.7692C7.56208 10.6257 7.62115 10.3515 7.62115 10.3515L7.88695 8.87058C7.88695 8.87058 7.9207 8.76088 7.99243 8.7651C8.0979 8.76932 8.13166 8.86636 8.13166 8.86636L9.58723 11.4695C9.58723 11.4695 9.63786 11.5581 9.7138 11.6172C9.78975 11.6762 9.96273 11.6805 9.96273 11.6805L12.4182 11.6594C12.4182 11.6594 12.5406 11.6636 12.6081 11.6087C12.6882 11.5412 12.7093 11.4358 12.7093 11.4358L12.7557 11.2206C12.7557 11.2206 12.7895 11.1193 12.7431 11.0223C12.6882 10.9084 12.4773 10.8831 12.2368 10.8113C12.0596 10.7565 11.8276 10.6299 11.7474 10.5118C11.6925 10.4274 11.7474 10.2544 11.7474 10.2544L12.5659 6.88762C12.5659 6.88762 12.5912 6.74839 12.7304 6.60494C12.857 6.47415 13.203 6.40243 13.203 6.40243C13.203 6.40243 13.2916 6.38555 13.3464 6.33492C13.3844 6.29695 13.4013 6.21679 13.4013 6.21679L13.4941 5.85395C13.4941 5.85395 13.5194 5.76113 13.4645 5.69785C13.4181 5.643 13.2873 5.643 13.2873 5.643H10.4817C10.4817 5.643 10.3889 5.63878 10.3003 5.7105C10.2201 5.77801 10.2074 5.84551 10.2074 5.84551L10.1399 6.14929C10.1399 6.14929 10.1188 6.22523 10.1441 6.2843C10.1779 6.36024 10.2538 6.36446 10.2538 6.36446L10.372 6.38555C10.372 6.38555 10.5914 6.42774 10.7053 6.54166C10.8192 6.65557 10.7643 6.95091 10.7643 6.95091L10.3551 8.91277L8.86999 6.08178C8.86999 6.08178 8.8278 5.95099 8.66326 5.79067C8.50293 5.63034 8.25401 5.643 8.25401 5.643H5.48209C5.48631 5.6219 5.36817 5.62612 5.30067 5.66409Z" fill="#00285A"/>
</svg>
