<svg width="18" height="18" viewBox="0 0 18 18" fill="none" xmlns="http://www.w3.org/2000/svg">
<g clip-path="url(#clip0_4103_12590)">
<path d="M9.96885 4.47187C9.8901 4.38863 9.82215 4.39402 9.75645 4.39402C8.3493 4.39402 6.94215 4.39447 5.535 4.39402C5.04338 4.39402 4.599 4.554 4.18545 4.80375C3.3597 5.3028 2.80238 5.99445 2.52607 6.94193C2.10488 8.3853 1.63755 9.81562 1.16527 11.2437C0.715275 12.6043 1.5561 13.6917 2.88405 13.5981C3.5973 13.5475 4.31707 13.5929 5.03392 13.5869C5.25712 13.5846 5.47808 13.5819 5.70127 13.516C6.85192 13.1762 7.56495 12.3919 7.9479 11.2921C8.22983 10.4825 8.47485 9.6597 8.72145 8.83845C8.81573 8.52638 8.94893 8.22308 8.99415 7.8993C8.8578 7.81155 8.7219 7.85137 8.59365 7.8507C7.89052 7.8462 7.18695 7.84328 6.48338 7.85138C6.23408 7.85407 5.9409 7.75327 5.74627 7.9011C5.55547 8.04645 5.55907 8.3511 5.48302 8.58735C5.3217 9.0864 5.16622 9.58725 5.00378 10.1016C5.39392 10.1826 5.76495 10.0786 6.13328 10.1759C6.02392 10.5199 5.91862 10.8317 5.8275 11.1479C5.79442 11.2615 5.76 11.3391 5.62275 11.3384C4.92188 11.3351 4.22078 11.3371 3.47333 11.3371C3.6243 10.8529 3.75953 10.4137 3.89745 9.97583C4.2147 8.96918 4.53195 7.96252 4.851 6.95632C4.94887 6.6465 4.95113 6.64628 5.28818 6.64515C5.5935 6.64425 5.8986 6.64515 6.20392 6.64515C7.14645 6.64515 8.0892 6.64695 9.0315 6.64222C9.1359 6.64155 9.2673 6.69915 9.32175 6.5214C9.5328 5.82952 9.756 5.14215 9.96885 4.47187ZM11.2738 13.5781C11.7909 13.5846 12.3242 13.6678 12.8218 13.5452C14.1138 13.2266 15.0383 12.4517 15.4588 11.1573C15.9066 9.7776 16.3368 8.39205 16.7695 7.00717C16.8793 6.6555 16.9724 6.30383 16.99 5.92628C17.0379 4.87688 16.1554 4.2219 15.3279 4.24327C14.5588 4.2633 13.7887 4.24642 13.0194 4.24867C12.8745 4.24935 12.7303 4.24935 12.5856 4.2876C11.2723 4.63635 10.373 5.42902 9.94928 6.7338C9.77127 7.28575 9.59696 7.83889 9.42637 8.39318C9.11812 9.38835 8.78963 10.3781 8.51062 11.3812C8.14545 12.6938 9.04612 13.6114 10.0804 13.5799C10.478 13.5679 10.876 13.5781 11.2738 13.5781ZM1.8081 5.91368C2.41605 4.72523 3.34192 3.91297 4.62105 3.50392C4.75155 3.46207 4.91918 3.51833 5.01615 3.375H15.7702C15.7941 3.4335 15.8479 3.43305 15.8992 3.44475C16.9337 3.67965 17.5923 4.30875 17.8837 5.32912C17.9384 5.51992 17.9028 5.72737 18 5.90872C17.9514 6.41992 17.8699 6.92145 17.6999 7.41173C17.4847 8.03228 17.323 8.67105 17.1169 9.29475C16.8032 10.242 16.5679 11.2149 16.1824 12.1385C15.5826 13.2039 14.7343 13.9813 13.5702 14.3935C13.1714 14.5369 12.7507 14.6101 12.3268 14.6099C9.10417 14.6054 5.88105 14.5949 2.6586 14.6144C1.52752 14.6212 0.2403 13.8334 0.06165 12.4123C0.0504 12.3212 0.02115 12.2324 0 12.1419C0.014625 11.516 0.19395 10.9273 0.387 10.3378C0.867375 8.86545 1.28857 7.3737 1.80787 5.91368" fill="black"/>
<path d="M14.5049 6.65762C13.8801 6.65762 13.3122 6.6565 12.7441 6.6583C12.3778 6.6592 12.3791 6.66167 12.2747 6.99737C12.0394 7.75202 11.8009 8.50577 11.5667 9.26064C11.3563 9.93902 11.1493 10.6185 10.9286 11.3369C11.3995 11.3369 11.8346 11.3423 12.2702 11.3351C12.52 11.3306 12.8134 11.4283 13.0087 11.291C13.204 11.1533 13.1954 10.8419 13.2706 10.6055C13.6799 9.3133 14.0804 8.01887 14.5049 6.65762ZM11.2742 13.5775C10.8766 13.5775 10.4781 13.5671 10.0808 13.5793C9.04643 13.6108 8.14576 12.6932 8.51093 11.3808C8.78993 10.3773 9.11821 9.38777 9.42668 8.39282C9.59718 7.83843 9.77149 7.28522 9.94958 6.73322C10.3733 5.4289 11.2726 4.63577 12.5861 4.28702C12.7306 4.24877 12.8748 4.24877 13.0197 4.2481C13.7892 4.24585 14.5587 4.26272 15.3282 4.2427C16.1558 4.22132 17.0382 4.87652 16.9903 5.9257C16.973 6.3037 16.8796 6.65492 16.7698 7.00637C16.3371 8.39125 15.9069 9.77702 15.4592 11.1567C15.0386 12.4511 14.1141 13.226 12.8217 13.5446C12.3245 13.6673 11.7912 13.5842 11.2742 13.5775ZM9.96893 4.4713C9.75631 5.14112 9.53288 5.82917 9.32183 6.52082C9.26738 6.69857 9.13598 6.64097 9.03158 6.64142C8.08928 6.64637 7.14653 6.64412 6.20401 6.64412C5.89868 6.64435 5.59358 6.64367 5.28826 6.6448C4.95143 6.6457 4.94896 6.64615 4.85108 6.95575C4.5323 7.96195 4.21445 8.96845 3.89753 9.97525C3.75961 10.4131 3.62438 10.8518 3.47341 11.3365C4.22086 11.3365 4.92196 11.3345 5.62283 11.3378C5.76008 11.3385 5.79451 11.2613 5.82758 11.1473C5.9187 10.8311 6.02401 10.5193 6.13336 10.1753C5.76503 10.0778 5.39401 10.1825 5.00386 10.101C5.16631 9.58667 5.32178 9.08582 5.48311 8.58677C5.55915 8.35052 5.55555 8.04587 5.74636 7.90052C5.94121 7.7527 6.23416 7.8535 6.48346 7.85102C7.18694 7.84423 7.89047 7.84386 8.59396 7.8499C8.72221 7.8508 8.85788 7.81075 8.99446 7.89872C8.94901 8.2225 8.81581 8.5258 8.72176 8.83787C8.47493 9.65912 8.22946 10.4819 7.94798 11.2913C7.56481 12.3915 6.85201 13.1754 5.70136 13.5156C5.47816 13.5813 5.25721 13.5842 5.034 13.586C4.31715 13.5923 3.59738 13.5469 2.88413 13.5973C1.55618 13.6913 0.71513 12.6035 1.16535 11.2431C1.63785 9.81505 2.10495 8.38472 2.52593 6.94135C2.80245 5.99387 3.35956 5.30222 4.18576 4.80317C4.59908 4.55342 5.04346 4.39345 5.53508 4.39367H9.75653C9.82223 4.39367 9.89018 4.38827 9.96893 4.4713Z" fill="#E62727"/>
<path d="M14.5046 6.65855C14.08 8.0198 13.6797 9.31423 13.2702 10.6064C13.1953 10.8429 13.2036 11.1543 13.0081 11.292C12.8133 11.4292 12.5199 11.3316 12.2699 11.3361C11.8343 11.3433 11.3991 11.3379 10.9282 11.3379C11.1489 10.6195 11.3557 9.93995 11.5663 9.26158C11.8005 8.5067 12.0393 7.75295 12.2744 6.9983C12.3788 6.6626 12.3772 6.66013 12.7435 6.65923C13.3116 6.65743 13.8802 6.65855 14.5046 6.65855Z" fill="black"/>
</g>
<defs>
<clipPath id="clip0_4103_12590">
<rect width="18" height="18" fill="white"/>
</clipPath>
</defs>
</svg>
